<svg xmlns="http://www.w3.org/2000/svg" width="512" height="512" style="" viewBox="0 0 512 512" data-svgdocument="" id="_gARaWvs35aqc5COZR6ulA" class="fl-svgdocument" x="0" y="0" xmlns:xlink="http://www.w3.org/1999/xlink"><defs id="_svmzkYoaCFd_Vh0i0lA9M" transform="matrix(0.8877164355621199, 0, 0, 0.8877164355621199, -15.620217026450021, 169.16187203566642)"></defs><g id="_CJqkIZHQcu-HJGSoK5FMZ" transform="matrix(0.9482739436027665, 0, 0, 0.9482739436027665, -0.8819057260051721, 5.963862675777165)"><path id="_Y8ioEvuSPCSk0pPXMLNEl" fill="none" transform="matrix(2.311573028564453, -0.040367335081100464, 0.040367335081100464, 2.311573028564453, 41.02814865112305, 205.39959716796875)" data-type="circle" data-cx="24.995" data-cy="6.89" data-r="3.191" d="M24.995,6.89m-3.191,0a3.191,3.191 0 1, 0 6.382,0a3.191,3.191 0 1, 0 -6.382,0"></path><path id="_CXirgnyzo8-VqL0Q5CQf1" fill="none" d="M41.483,29.601c-0.474-0.265-1.015-0.409-1.557-0.409c-1.156,0-2.222,0.628-2.788,1.633   c-0.419,0.741-0.522,1.602-0.29,2.424c0.231,0.82,0.764,1.501,1.509,1.922c1.488,0.839,3.515,0.258,4.344-1.221   C43.564,32.41,43.017,30.461,41.483,29.601z" transform="matrix(2.311573028564453, -0.040367335081100464, 0.040367335081100464, 2.311573028564453, 41.017723083496094, 205.37989807128906)"></path><path id="_KvKxi6N1qK92RQoI1Q9t4" fill="none" d="M39.921,12.437c-0.541,0-1.08,0.14-1.557,0.409c-0.744,0.414-1.279,1.097-1.51,1.915   c-0.232,0.82-0.129,1.685,0.29,2.426c0.565,1.005,1.632,1.632,2.787,1.632c0.541,0,1.081-0.144,1.559-0.411   c0.745-0.416,1.277-1.097,1.509-1.919c0.232-0.821,0.129-1.681-0.287-2.425C42.143,13.063,41.077,12.437,39.921,12.437z" transform="matrix(2.311573028564453, -0.040367335081100464, 0.040367335081100464, 2.311573028564453, 41.02346420288086, 205.39967346191406)"></path><path id="_z3iPrSLnyXISTWt6CDYu1" fill="none" transform="matrix(2.311573028564453, -0.040367335081100464, 0.040367335081100464, 2.311573028564453, 41.02512741088867, 205.39669799804688)" data-type="circle" data-cx="24.995" data-cy="41.118" data-r="3.19" d="M24.995,41.118m-3.19,0a3.19,3.19 0 1, 0 6.38,0a3.19,3.19 0 1, 0 -6.38,0"></path><path id="_vM7eSmPgI-dPoxuq7DNSf" fill="none" d="M8.514,18.408c0.474,0.266,1.013,0.406,1.556,0.406l0,0c1.153,0,2.22-0.624,2.785-1.628   c0.862-1.534,0.314-3.485-1.222-4.344c-0.477-0.269-1.015-0.41-1.556-0.41c-1.152,0-2.223,0.625-2.788,1.629   C6.432,15.592,6.979,17.542,8.514,18.408z" transform="matrix(2.311573028564453, -0.040367335081100464, 0.040367335081100464, 2.311573028564453, 41.0142707824707, 205.3993377685547)"></path><path id="_hlcx5qlaS_ec8o4pgB7jG" fill="none" d="M10.065,29.189c-0.541,0-1.079,0.144-1.554,0.409c-0.743,0.414-1.279,1.096-1.509,1.918   C6.77,32.34,6.874,33.2,7.292,33.944c0.562,1.005,1.633,1.626,2.792,1.626c0.541,0,1.079-0.138,1.555-0.405   c1.534-0.861,2.081-2.809,1.222-4.345C12.292,29.816,11.223,29.189,10.065,29.189z" transform="matrix(2.311573028564453, -0.040367335081100464, 0.040367335081100464, 2.311573028564453, 41.02228927612305, 205.39772033691406)"></path><path id="_MehtgEQar8N_eMeuYoFVi" fill="#277efd" d="M4.858,12.695c1.562-2.771,5.361-3.852,8.144-2.287c2.875,1.617,3.899,5.27,2.286,8.145   c-1.057,1.884-3.059,3.054-5.217,3.054l0,0c-1.019,0-2.031-0.264-2.924-0.764C4.269,19.222,3.242,15.566,4.858,12.695z    M13.004,37.602c-0.895,0.497-1.903,0.76-2.921,0.76c-2.164,0-4.165-1.17-5.226-3.053c-0.782-1.395-0.975-3.008-0.541-4.547   c0.431-1.538,1.436-2.815,2.828-3.598c2.791-1.562,6.591-0.48,8.145,2.291C16.904,32.329,15.877,35.985,13.004,37.602z    M24.995,47.101c-3.297,0-5.981-2.682-5.981-5.98c0-3.298,2.685-5.982,5.981-5.982c3.3,0,5.983,2.685,5.983,5.982   C30.979,44.419,28.295,47.101,24.995,47.101z M24.995,12.872c-3.297,0-5.981-2.683-5.981-5.981c0-3.3,2.685-5.981,5.981-5.981   c3.3,0,5.983,2.681,5.983,5.981C30.979,10.189,28.295,12.872,24.995,12.872z M45.134,35.311c-1.058,1.885-3.058,3.054-5.221,3.054   c-1.023,0-2.032-0.266-2.928-0.767c-1.392-0.782-2.396-2.062-2.826-3.6c-0.434-1.539-0.235-3.152,0.544-4.544   c1.556-2.771,5.354-3.856,8.144-2.29C45.729,28.785,46.752,32.438,45.134,35.311z M45.686,17.251   c-0.433,1.537-1.441,2.812-2.834,3.594c-0.89,0.502-1.904,0.767-2.923,0.767c-2.159,0-4.162-1.17-5.223-3.056   c-0.779-1.392-0.975-3.007-0.541-4.543c0.433-1.537,1.441-2.816,2.833-3.598c2.793-1.559,6.591-0.48,8.146,2.289   C45.924,14.098,46.113,15.714,45.686,17.251z" transform="matrix(0.7037888169288635, 0.3741740882396698, -0.3741740882396698, 0.7037888169288635, 90.96578216552734, 233.41888427734375)"></path><path id="_EdrO1Bv3hRzjPbV9Du1Ty" fill="#00d671" d="M24.995,0.909c-3.297,0-5.981,2.681-5.981,5.981c0,3.299,2.685,5.981,5.981,5.981   c3.3,0,5.983-2.683,5.983-5.981C30.979,3.59,28.295,0.909,24.995,0.909z M24.995,10.081c-1.757,0-3.19-1.43-3.19-3.19   c0-1.758,1.434-3.191,3.19-3.191c1.759,0,3.191,1.433,3.191,3.191C28.187,8.651,26.755,10.081,24.995,10.081z" transform="matrix(2.311573028564453, -0.040367335081100464, 0.040367335081100464, 2.311573028564453, 41.70165252685547, 206.05831909179688)"></path><path id="_huN2mjRV7y9oCu3CZGhNZ" fill="#00d671" d="M24.995,35.138c-3.297,0-5.981,2.685-5.981,5.982c0,3.299,2.685,5.98,5.981,5.98   c3.3,0,5.983-2.682,5.983-5.98C30.979,37.822,28.295,35.138,24.995,35.138z M24.995,44.308c-1.757,0-3.19-1.43-3.19-3.188   c0-1.76,1.434-3.192,3.19-3.192c1.759,0,3.191,1.433,3.191,3.192C28.187,42.878,26.755,44.308,24.995,44.308z" transform="matrix(2.311573028564453, -0.040367335081100464, 0.040367335081100464, 2.311573028564453, 41.70094680786133, 206.05702209472656)"></path><path id="_z512MZymsZftVSXb1kQFk" fill="#00d671" d="M7.146,20.84c0.894,0.503,1.905,0.763,2.924,0.763l0,0c2.159,0,4.16-1.167,5.217-3.051   c1.617-2.877,0.59-6.53-2.286-8.145C10.219,8.84,6.417,9.92,4.858,12.692C3.242,15.566,4.269,19.222,7.146,20.84z M7.292,14.061   c0.567-1.004,1.633-1.629,2.789-1.629c0.541,0,1.079,0.141,1.555,0.41c1.534,0.863,2.081,2.81,1.221,4.344   c-0.564,1.005-1.63,1.628-2.785,1.628l0,0c-0.541,0-1.08-0.141-1.554-0.406C6.979,17.542,6.432,15.592,7.292,14.061z" transform="matrix(2.311573028564453, -0.040367335081100464, 0.040367335081100464, 2.311573028564453, 41.69708251953125, 206.00784301757812)"></path><path id="_cj_fxnxNYCanbVxGZK8MT" fill="#00d671" d="M42.85,27.167c-2.793-1.569-6.591-0.479-8.144,2.288c-0.779,1.396-0.978,3.004-0.544,4.544   c0.431,1.542,1.438,2.819,2.827,3.603c0.895,0.502,1.903,0.766,2.927,0.766c2.162,0,4.162-1.17,5.223-3.053   C46.752,32.438,45.729,28.785,42.85,27.167z M42.701,33.946c-0.829,1.48-2.855,2.061-4.344,1.221   c-0.742-0.418-1.277-1.102-1.509-1.921c-0.232-0.82-0.129-1.684,0.29-2.426c0.563-1.004,1.629-1.631,2.788-1.631   c0.539,0,1.08,0.144,1.557,0.409C43.017,30.461,43.564,32.41,42.701,33.946z" transform="matrix(2.311573028564453, -0.040367335081100464, 0.040367335081100464, 2.311573028564453, 41.702938079833984, 206.01263427734375)"></path><path id="_fR341yK_3270-nNHZCxt7" fill="#00d671" d="M36.998,10.413c-1.392,0.781-2.397,2.06-2.833,3.596c-0.434,1.539-0.238,3.15,0.541,4.544   c1.058,1.887,3.061,3.056,5.223,3.056c1.019,0,2.033-0.264,2.923-0.766c1.393-0.78,2.396-2.058,2.834-3.596   c0.431-1.539,0.238-3.154-0.541-4.545C43.589,9.931,39.788,8.85,36.998,10.413z M42.996,16.493c-0.23,0.817-0.764,1.5-1.51,1.917   c-0.477,0.269-1.018,0.41-1.558,0.41c-1.155,0-2.222-0.624-2.787-1.629c-0.416-0.743-0.52-1.606-0.29-2.428   c0.23-0.817,0.767-1.499,1.509-1.916c0.474-0.267,1.014-0.409,1.559-0.409c1.155,0,2.224,0.628,2.787,1.627   C43.125,14.811,43.229,15.671,42.996,16.493z" transform="matrix(2.311573028564453, -0.040367335081100464, 0.040367335081100464, 2.311573028564453, 41.70966720581055, 206.00486755371094)"></path><path id="__BOhOe9XLJRhRTZKypnHZ" fill="#00d671" d="M7.146,27.164c-1.392,0.782-2.397,2.06-2.828,3.598c-0.434,1.539-0.242,3.153,0.541,4.547   c1.058,1.883,3.058,3.053,5.226,3.053c1.018,0,2.026-0.263,2.921-0.76c2.875-1.616,3.899-5.272,2.286-8.146   C13.736,26.684,9.937,25.602,7.146,27.164z M11.636,35.165c-0.477,0.268-1.015,0.405-1.555,0.405c-1.155,0-2.226-0.625-2.792-1.626   c-0.416-0.744-0.52-1.605-0.291-2.428c0.229-0.82,0.764-1.504,1.511-1.918c0.474-0.267,1.011-0.409,1.552-0.409   c1.158,0,2.226,0.627,2.793,1.631C13.717,32.356,13.169,34.304,11.636,35.165z" transform="matrix(2.311573028564453, -0.040367335081100464, 0.040367335081100464, 2.311573028564453, 41.70217514038086, 206.0048370361328)"></path></g><path text="Ting" text-anchor="start" font-size="100" letter-spacing="0" side="left" offset="0" dx="0" dy="0" space="preserve" href="" font-family="Michroma" font-scale="contain" transform="matrix(0.48938597232200204, 0, 0, 0.4809204599328724, 167.4280086172144, 238.26536782207532)" x="0" y="0" fill="#277efd" data-fl-textpath="" id="_OhXim-GKrs3Dri1DkcOyq" d="M 6.25-75L 90.63-75L 90.63-67.19L 53.13-67.19L 53.13 0L 43.75 0L 43.75-67.19L 6.25-67.19L 6.25-75ZM 106.255 0L 106.255-56.25L 115.625-56.25L 115.625 0L 106.255 0ZM 115.625-75L 115.625-65.63L 106.255-65.63L 106.255-75L 115.625-75ZM 196.88 0L 187.5 0L 187.5-31.25Q 187.5-36.47  186.72-40.06Q 185.94-43.65  183.59-45.85Q 181.25-48.05  176.95-49.02Q 172.66-50  165.63-50L 165.63-50Q 158.01-50  153.15-48.88Q 148.29-47.75  145.51-45.7Q 142.72-43.65  141.67000000000002-40.77Q 140.63-37.89  140.63-34.38L 140.63-34.38L 140.63 0L 131.25 0L 131.25-56.25L 140.63-56.25L 140.63-46.88Q 141.65-49.27  143.55-51Q 145.46-52.73  147.85-53.96Q 150.24-55.18  153.03-55.93Q 155.81-56.69  158.59-57.1Q 161.38-57.52  163.99-57.67Q 166.6-57.81  168.75-57.81L 168.75-57.81Q 175-57.81  179.52-57.03Q 184.03-56.25  187.18-54.74Q 190.32999999999998-53.22  192.24-50.98Q 194.14-48.73  195.19-45.78Q 196.24-42.82  196.57999999999998-39.18Q 196.92000000000002-35.55  196.92000000000002-31.25L 196.92000000000002-31.25L 196.88 0ZM 242.233828125-50L 242.233828125-50Q 236.763828125-50  232.783828125-49.66Q 228.803828125-49.32  226.023828125-48.44Q 223.243828125-47.56  221.50382812499998-46Q 219.773828125-44.43  218.823828125-41.99Q 217.873828125-39.55  217.553828125-36.11Q 217.233828125-32.67  217.233828125-28.03L 217.233828125-28.03Q 217.233828125-23.44  217.553828125-20.04Q 217.873828125-16.65  218.823828125-14.23Q 219.773828125-11.82  221.50382812499998-10.25Q 223.243828125-8.69  226.023828125-7.81Q 228.803828125-6.93  232.783828125-6.59Q 236.763828125-6.25  242.233828125-6.25L 242.233828125-6.25Q 246.923828125-6.25  250.583828125-6.47Q 254.243828125-6.69  257.033828125-7.45Q 259.813828125-8.2  261.743828125-9.64Q 263.673828125-11.08  264.893828125-13.5Q 266.113828125-15.92  266.673828125-19.51Q 267.233828125-23.1  267.233828125-28.17L 267.233828125-28.17Q 267.233828125-33.25  266.673828125-36.87Q 266.113828125-40.48  264.893828125-42.9Q 263.673828125-45.31  261.743828125-46.73Q 259.813828125-48.14  257.033828125-48.88Q 254.243828125-49.61  250.583828125-49.8Q 246.923828125-50  242.233828125-50ZM 276.613828125-56.25L 276.613828125-7.81Q 276.613828125 0.39  274.753828125 5.81Q 272.903828125 11.23  268.803828125 14.58Q 264.693828125 17.92  258.153828125 19.24Q 251.613828125 20.56  242.233828125 20.56L 242.233828125 20.56Q 233.443828125 20.56  227.463828125 19.78Q 221.483828125 18.99  217.823828125 17.31Q 214.163828125 15.63  212.573828125 12.96Q 210.983828125 10.3  210.983828125 6.49L 210.983828125 6.49L 220.363828125 6.49Q 220.363828125 8.4  221.363828125 9.62Q 222.363828125 10.84  224.853828125 11.52Q 227.34382812500002 12.21  231.563828125 12.48Q 235.793828125 12.74  242.233828125 12.74L 242.233828125 12.74Q 249.263828125 12.74  254.053828125 12.23Q 258.83382812499997 11.72  261.76382812500003 9.81Q 264.693828125 7.91  265.963828125 4.05Q 267.233828125 0.2  267.233828125-6.25L 267.233828125-6.25Q 266.553828125-5.08  265.063828125-3.71Q 263.573828125-2.34  260.713828125-1.17Q 257.863828125 0  253.373828125 0.78Q 248.873828125 1.56  242.233828125 1.56L 242.233828125 1.56Q 232.863828125 1.56  226.313828125 0.17Q 219.773828125-1.22  215.673828125-4.59Q 211.573828125-7.96  209.713828125-13.67Q 207.863828125-19.38  207.863828125-28.03L 207.863828125-28.03Q 207.863828125-36.82  209.713828125-42.58Q 211.573828125-48.34  215.673828125-51.71Q 219.773828125-55.08  226.313828125-56.45Q 232.863828125-57.81  242.233828125-57.81L 242.233828125-57.81Q 248.873828125-57.81  253.373828125-57.13Q 257.863828125-56.45  260.713828125-55.42Q 263.573828125-54.39  265.063828125-53.2Q 266.553828125-52  267.233828125-51.03L 267.233828125-51.03L 267.233828125-56.25L 276.613828125-56.25Z"></path><path text="Tuffer" text-anchor="start" font-size="100" letter-spacing="0" side="left" offset="0" dx="0" dy="0" space="preserve" href="" font-family="Michroma" font-scale="contain" transform="matrix(0.7705178529240259, 0, 0, 0.7661013734911312, 163.25921196167468, 309.6575642120521)" x="0" y="0" fill="#277efd" data-fl-textpath="" id="_UKF_opl9uJwJ48iewuvd9" d="M 6.25-75L 90.63-75L 90.63-67.19L 53.13-67.19L 53.13 0L 43.75 0L 43.75-67.19L 6.25-67.19L 6.25-75ZM 103.175-56.25L 112.545-56.25L 112.545-25Q 112.545-19.78  113.33500000000001-16.19Q 114.115-12.6  116.455-10.4Q 118.795-8.2  123.095-7.23Q 127.395-6.25  134.425-6.25L 134.425-6.25Q 142.04500000000002-6.25  146.895-7.37Q 151.755-8.5  154.54500000000002-10.55Q 157.325-12.6  158.375-15.48Q 159.425-18.36  159.425-21.88L 159.425-21.88L 159.425-56.25L 168.79500000000002-56.25L 168.79500000000002 0L 159.425 0L 159.425-9.38Q 158.745-7.86  157.125-6.03Q 155.515-4.2  152.29500000000002-2.64Q 149.075-1.07  143.965 0Q 138.865 1.07  131.29500000000002 1.07L 131.29500000000002 1.07Q 125.005 1.07  120.485 0.32Q 115.965-0.44  112.815-1.93Q 109.66499999999999-3.42  107.765-5.62Q 105.855-7.81  104.835-10.72Q 103.805-13.62  103.465-17.19Q 103.125-20.75  103.125-25L 103.125-25L 103.175-56.25ZM 226.608828125-49.12L 200.048828125-49.12L 200.048828125 0L 190.678828125 0L 190.678828125-49.12L 181.298828125-49.12L 181.298828125-56.25L 190.678828125-56.25L 190.678828125-56.74Q 190.678828125-62.45  191.938828125-66.26Q 193.208828125-70.07  196.138828125-72.36Q 199.068828125-74.66  203.87882812499998-75.61Q 208.688828125-76.56  215.71882812500002-76.56L 215.71882812500002-76.56L 226.608828125-76.56L 226.608828125-68.75L 215.678828125-68.75Q 211.228828125-68.75  208.248828125-68.55Q 205.268828125-68.36  203.438828125-67.24Q 201.608828125-66.11  200.828828125-63.67Q 200.048828125-61.23  200.048828125-56.74L 200.048828125-56.74L 200.048828125-56.25L 226.608828125-56.25L 226.608828125-49.12ZM 278.171328125-49.12L 251.611328125-49.12L 251.611328125 0L 242.241328125 0L 242.241328125-49.12L 232.861328125-49.12L 232.861328125-56.25L 242.241328125-56.25L 242.241328125-56.74Q 242.241328125-62.45  243.501328125-66.26Q 244.771328125-70.07  247.701328125-72.36Q 250.631328125-74.66  255.44132812499998-75.61Q 260.251328125-76.56  267.281328125-76.56L 267.281328125-76.56L 278.171328125-76.56L 278.171328125-68.75L 267.241328125-68.75Q 262.791328125-68.75  259.811328125-68.55Q 256.831328125-68.36  255.001328125-67.24Q 253.171328125-66.11  252.391328125-63.67Q 251.611328125-61.23  251.611328125-56.74L 251.611328125-56.74L 251.611328125-56.25L 278.171328125-56.25L 278.171328125-49.12ZM 317.233828125 1.07L 317.233828125 1.07Q 307.863828125 1.07  301.313828125-0.22Q 294.773828125-1.51  290.673828125-4.69Q 286.573828125-7.86  284.713828125-13.18Q 282.863828125-18.51  282.863828125-26.56L 282.863828125-26.56Q 282.863828125-35.79  284.713828125-41.82Q 286.573828125-47.85  290.673828125-51.42Q 294.773828125-54.98  301.313828125-56.4Q 307.863828125-57.81  317.233828125-57.81L 317.233828125-57.81Q 323.923828125-57.81  328.83382812499997-56.84Q 333.743828125-55.86  337.233828125-54Q 340.723828125-52.15  342.893828125-49.51Q 345.063828125-46.88  346.313828125-43.97Q 347.553828125-41.06  348.023828125-37.16Q 348.483828125-33.25  348.483828125-28.91L 348.483828125-28.91L 347.703828125-25.78L 292.233828125-25.78Q 292.233828125-19.34  293.503828125-15.21Q 294.773828125-11.08  297.703828125-9.18Q 300.633828125-7.28  305.423828125-6.76Q 310.203828125-6.25  317.233828125-6.25L 317.233828125-6.25Q 323.683828125-6.25  327.903828125-6.62Q 332.133828125-6.98  334.623828125-8.01Q 337.113828125-9.03  338.113828125-10.86Q 339.113828125-12.7  339.113828125-15.63L 339.113828125-15.63L 348.483828125-15.63Q 348.483828125-11.08  346.903828125-7.89Q 345.313828125-4.69  341.653828125-2.71Q 337.983828125-0.73  332.003828125 0.17Q 326.023828125 1.07  317.233828125 1.07ZM 317.233828125-50L 317.233828125-50Q 312.553828125-50  308.863828125-49.8Q 305.173828125-49.61  302.413828125-48.95Q 299.653828125-48.29  297.703828125-47.05Q 295.753828125-45.8  294.553828125-44.12Q 293.363828125-42.43  292.793828125-39.38Q 292.233828125-36.33  292.233828125-32.03L 292.233828125-32.03L 339.113828125-32.03Q 339.113828125-37.74  337.893828125-40.99Q 336.673828125-44.24  334.033828125-46.34Q 331.393828125-48.44  327.243828125-49.22Q 323.093828125-50  317.233828125-50ZM 417.236328125-37.94L 409.426328125-37.94Q 409.426328125-41.46  408.906328125-43.77Q 408.39632812499997-46.09  406.496328125-47.49Q 404.586328125-48.88  400.856328125-49.44Q 397.116328125-50  390.676328125-50L 390.676328125-50Q 384.376328125-50  380.416328125-48.9Q 376.466328125-47.8  374.216328125-45.8Q 371.976328125-43.8  371.166328125-41.02Q 370.366328125-38.23  370.366328125-34.81L 370.366328125-34.81L 370.366328125 0L 360.986328125 0L 360.986328125-56.25L 370.366328125-56.25L 370.366328125-47.31Q 370.846328125-48.83  372.166328125-50.66Q 373.486328125-52.49  376.176328125-54.08Q 378.856328125-55.66  383.126328125-56.74Q 387.406328125-57.81  393.796328125-57.81L 393.796328125-57.81Q 401.126328125-57.81  405.716328125-56.52Q 410.306328125-55.22  412.866328125-52.71Q 415.426328125-50.2  416.336328125-46.48Q 417.236328125-42.77  417.236328125-37.94L 417.236328125-37.94Z"></path></svg>